<?xml version="1.0" standalone="no"?>
<!DOCTYPE svg PUBLIC "-//W3C//DTD SVG 20010904//EN"
 "http://www.w3.org/TR/2001/REC-SVG-20010904/DTD/svg10.dtd">
<svg version="1.0" xmlns="http://www.w3.org/2000/svg"
 width="512.000000pt" height="512.000000pt" viewBox="0 0 512.000000 512.000000"
 preserveAspectRatio="xMidYMid meet">
<metadata>
Created by potrace 1.14, written by Peter Selinger 2001-2017
</metadata>
<g transform="translate(0.000000,512.000000) scale(0.100000,-0.100000)"
fill="#000000" stroke="none">
<path d="M2406 5103 c-255 -53 -466 -214 -581 -443 -15 -30 -28 -56 -29 -57 0
-1 -26 5 -56 13 -91 24 -130 29 -240 28 -125 -1 -197 -15 -299 -58 -295 -125
-490 -396 -508 -708 -6 -106 7 -216 37 -304 l19 -54 -68 -43 c-144 -94 -256
-221 -331 -378 -66 -138 -83 -219 -83 -394 0 -134 3 -159 27 -239 51 -168 134
-305 252 -415 150 -141 330 -226 516 -244 9 0 26 -21 38 -46 147 -303 572
-438 919 -293 l68 29 19 -31 c26 -40 61 -124 69 -162 7 -34 8 -161 1 -172 -2
-4 -7 -36 -11 -72 -4 -36 -9 -74 -11 -85 -21 -103 -15 -136 31 -162 11 -7 11
-20 -3 -82 -16 -70 -19 -74 -46 -76 -36 -1 -57 -30 -86 -119 -41 -127 -104
-246 -202 -378 -42 -58 -49 -72 -43 -98 14 -63 -20 -60 758 -60 l708 0 25 27
c33 36 27 70 -25 132 -132 158 -257 465 -295 726 -6 35 -10 64 -22 128 -10 57
-19 185 -18 267 0 97 12 148 46 206 l19 32 43 -24 c51 -29 147 -63 196 -70 19
-3 42 -7 50 -10 19 -7 187 -6 225 1 234 43 413 165 504 342 13 27 30 44 44 47
251 51 377 115 527 265 186 188 272 400 265 659 -4 172 -42 307 -129 457 -52
88 -189 228 -282 289 l-72 46 24 77 c28 91 43 271 25 315 -6 16 -24 33 -42 41
-28 11 -34 21 -54 90 -21 74 -21 77 -3 93 30 28 22 67 -31 146 -206 308 -576
434 -947 323 -17 -5 -24 1 -39 37 -50 113 -175 260 -285 334 -67 46 -166 91
-250 114 -96 27 -267 33 -364 13z"/>
</g>
</svg>
